<?xml version="1.0" encoding="UTF-8" standalone="no"?><svg xmlns="http://www.w3.org/2000/svg" xmlns:xlink="http://www.w3.org/1999/xlink" contentScriptType="application/ecmascript" contentStyleType="text/css" height="764px" preserveAspectRatio="none" style="width:1147px;height:764px;" version="1.1" viewBox="0 0 1147 764" width="1147px" zoomAndPan="magnify"><defs><filter height="300%" id="fudpmylw82r2k" width="300%" x="-1" y="-1"><feGaussianBlur result="blurOut" stdDeviation="2.0"/><feColorMatrix in="blurOut" result="blurOut2" type="matrix" values="0 0 0 0 0 0 0 0 0 0 0 0 0 0 0 0 0 0 .4 0"/><feOffset dx="4.0" dy="4.0" in="blurOut2" result="blurOut3"/><feBlend in="SourceGraphic" in2="blurOut3" mode="normal"/></filter></defs><g><!--MD5=[7e87e452d4f704b76a55388b35a6d1cd]
class TExpressionStatement--><rect codeLine="11" fill="#FFFFFF" filter="url(#fudpmylw82r2k)" height="32" id="TExpressionStatement" style="stroke:#A9A9A9;stroke-width:1.5;" width="173" x="270.99" y="421"/><ellipse cx="285.99" cy="437" fill="#D3D3D3" rx="11" ry="11" style="stroke:#A9A9A9;stroke-width:1.0;"/><path d="M286.8338,443.75 L284.3806,443.75 L284.3806,433.5 L281.24,433.5 L281.24,431.3594 L289.9744,431.3594 L289.9744,433.5 L286.8338,433.5 L286.8338,443.75 Z " fill="#000000"/><text fill="#000000" font-family="sans-serif" font-size="12" lengthAdjust="spacing" textLength="141" x="299.99" y="441.1543">TExpressionStatement</text><!--MD5=[fbec603a0d5e6685cd32610a73228596]
class TScopableEntity--><rect codeLine="13" fill="#FFFFFF" filter="url(#fudpmylw82r2k)" height="32" id="TScopableEntity" style="stroke:#A9A9A9;stroke-width:1.5;" width="132" x="396.49" y="231"/><ellipse cx="411.49" cy="247" fill="#D3D3D3" rx="11" ry="11" style="stroke:#A9A9A9;stroke-width:1.0;"/><path d="M412.3338,253.75 L409.8806,253.75 L409.8806,243.5 L406.74,243.5 L406.74,241.3594 L415.4744,241.3594 L415.4744,243.5 L412.3338,243.5 L412.3338,253.75 Z " fill="#000000"/><text fill="#000000" font-family="sans-serif" font-size="12" lengthAdjust="spacing" textLength="100" x="425.49" y="251.1543">TScopableEntity</text><!--MD5=[e5125c99485fa233c674344f5d996e7e]
class TStatementBlock--><rect codeLine="15" fill="#FFFFFF" filter="url(#fudpmylw82r2k)" height="32" id="TStatementBlock" style="stroke:#A9A9A9;stroke-width:1.5;" width="138" x="614.49" y="421"/><ellipse cx="629.49" cy="437" fill="#D3D3D3" rx="11" ry="11" style="stroke:#A9A9A9;stroke-width:1.0;"/><path d="M630.3338,443.75 L627.8806,443.75 L627.8806,433.5 L624.74,433.5 L624.74,431.3594 L633.4744,431.3594 L633.4744,433.5 L630.3338,433.5 L630.3338,443.75 Z " fill="#000000"/><text fill="#000000" font-family="sans-serif" font-size="12" lengthAdjust="spacing" textLength="106" x="643.49" y="441.1543">TStatementBlock</text><!--MD5=[73ef187932967aa63dd4a169d5713a69]
class TWithParameters--><rect codeLine="17" fill="#FFFFFF" filter="url(#fudpmylw82r2k)" height="32" id="TWithParameters" style="stroke:#A9A9A9;stroke-width:1.5;" width="139" x="706.99" y="231"/><ellipse cx="721.99" cy="247" fill="#D3D3D3" rx="11" ry="11" style="stroke:#A9A9A9;stroke-width:1.0;"/><path d="M722.8338,253.75 L720.3806,253.75 L720.3806,243.5 L717.24,243.5 L717.24,241.3594 L725.9744,241.3594 L725.9744,243.5 L722.8338,243.5 L722.8338,253.75 Z " fill="#000000"/><text fill="#000000" font-family="sans-serif" font-size="12" lengthAdjust="spacing" textLength="107" x="735.99" y="251.1543">TWithParameters</text><!--MD5=[4754ae7251826076100d31acef09ca32]
class TExpression--><rect codeLine="19" fill="#FFFFFF" filter="url(#fudpmylw82r2k)" height="32" id="TExpression" style="stroke:#A9A9A9;stroke-width:1.5;" width="107" x="303.99" y="513"/><ellipse cx="318.99" cy="529" fill="#D3D3D3" rx="11" ry="11" style="stroke:#A9A9A9;stroke-width:1.0;"/><path d="M319.8338,535.75 L317.3806,535.75 L317.3806,525.5 L314.24,525.5 L314.24,523.3594 L322.9744,523.3594 L322.9744,525.5 L319.8338,525.5 L319.8338,535.75 Z " fill="#000000"/><text fill="#000000" font-family="sans-serif" font-size="12" lengthAdjust="spacing" textLength="75" x="332.99" y="533.1543">TExpression</text><!--MD5=[4dd683cd8fb8dc056a44b999a3cf5480]
class FASTModel--><rect codeLine="21" fill="#FFFFFF" filter="url(#fudpmylw82r2k)" height="32" id="FASTModel" style="stroke:#A9A9A9;stroke-width:1.5;" width="99" x="1034.99" y="122"/><ellipse cx="1049.99" cy="138" fill="#FFFFFF" rx="11" ry="11" style="stroke:#A9A9A9;stroke-width:1.0;"/><path d="M1052.9588,143.6406 Q1052.3806,143.9375 1051.74,144.0781 Q1051.0994,144.2344 1050.3963,144.2344 Q1047.8963,144.2344 1046.5681,142.5938 Q1045.2556,140.9375 1045.2556,137.8125 Q1045.2556,134.6875 1046.5681,133.0313 Q1047.8963,131.375 1050.3963,131.375 Q1051.0994,131.375 1051.74,131.5313 Q1052.3963,131.6875 1052.9588,131.9844 L1052.9588,134.7031 Q1052.3338,134.125 1051.74,133.8594 Q1051.1463,133.5781 1050.5213,133.5781 Q1049.1775,133.5781 1048.49,134.6563 Q1047.8025,135.7188 1047.8025,137.8125 Q1047.8025,139.9063 1048.49,140.9844 Q1049.1775,142.0469 1050.5213,142.0469 Q1051.1463,142.0469 1051.74,141.7813 Q1052.3338,141.5 1052.9588,140.9219 L1052.9588,143.6406 Z " fill="#000000"/><text fill="#000000" font-family="sans-serif" font-size="12" lengthAdjust="spacing" textLength="67" x="1063.99" y="142.1543">FASTModel</text><!--MD5=[9342578375d27f7d6f0fb6a24ebe566c]
class TArgument--><rect codeLine="23" fill="#FFFFFF" filter="url(#fudpmylw82r2k)" height="32" id="TArgument" style="stroke:#A9A9A9;stroke-width:1.5;" width="100" x="479.49" y="421"/><ellipse cx="494.49" cy="437" fill="#D3D3D3" rx="11" ry="11" style="stroke:#A9A9A9;stroke-width:1.0;"/><path d="M495.3338,443.75 L492.8806,443.75 L492.8806,433.5 L489.74,433.5 L489.74,431.3594 L498.4744,431.3594 L498.4744,433.5 L495.3338,433.5 L495.3338,443.75 Z " fill="#000000"/><text fill="#000000" font-family="sans-serif" font-size="12" lengthAdjust="spacing" textLength="68" x="508.49" y="441.1543">TArgument</text><!--MD5=[bdc9c1a92da19ff1130428a2b0b11364]
class TNamedBehaviouralEntity--><rect codeLine="25" fill="#FFFFFF" filter="url(#fudpmylw82r2k)" height="32" id="TNamedBehaviouralEntity" style="stroke:#A9A9A9;stroke-width:1.5;" width="191" x="787.99" y="421"/><ellipse cx="802.99" cy="437" fill="#D3D3D3" rx="11" ry="11" style="stroke:#A9A9A9;stroke-width:1.0;"/><path d="M803.8338,443.75 L801.3806,443.75 L801.3806,433.5 L798.24,433.5 L798.24,431.3594 L806.9744,431.3594 L806.9744,433.5 L803.8338,433.5 L803.8338,443.75 Z " fill="#000000"/><text fill="#000000" font-family="sans-serif" font-size="12" lengthAdjust="spacing" textLength="159" x="816.99" y="441.1543">TNamedBehaviouralEntity</text><!--MD5=[68732f7a25cd503a65c9255f5da80803]
class TEntity--><rect codeLine="27" fill="#FFFFFF" filter="url(#fudpmylw82r2k)" height="65.6094" id="TEntity" style="stroke:#A9A9A9;stroke-width:1.5;" width="109" x="164.99" y="105"/><ellipse cx="195.74" cy="121" fill="#D3D3D3" rx="11" ry="11" style="stroke:#A9A9A9;stroke-width:1.0;"/><path d="M196.5838,127.75 L194.1306,127.75 L194.1306,117.5 L190.99,117.5 L190.99,115.3594 L199.7244,115.3594 L199.7244,117.5 L196.5838,117.5 L196.5838,127.75 Z " fill="#000000"/><text fill="#000000" font-family="sans-serif" font-size="12" lengthAdjust="spacing" textLength="42" x="213.24" y="125.1543">TEntity</text><line style="stroke:#A9A9A9;stroke-width:1.5;" x1="165.99" x2="272.99" y1="137" y2="137"/><text fill="#000000" font-family="sans-serif" font-size="11" lengthAdjust="spacing" textLength="91" x="170.99" y="151.2104">Number endPos</text><text fill="#000000" font-family="sans-serif" font-size="11" lengthAdjust="spacing" textLength="97" x="170.99" y="164.0151">Number startPos</text><!--MD5=[d1ba685bbff6f561cd5e3333a37608b9]
class TVariableExpression--><rect codeLine="31" fill="#FFFFFF" filter="url(#fudpmylw82r2k)" height="32" id="TVariableExpression" style="stroke:#A9A9A9;stroke-width:1.5;" width="158" x="953.49" y="615.5"/><ellipse cx="968.49" cy="631.5" fill="#D3D3D3" rx="11" ry="11" style="stroke:#A9A9A9;stroke-width:1.0;"/><path d="M969.3338,638.25 L966.8806,638.25 L966.8806,628 L963.74,628 L963.74,625.8594 L972.4744,625.8594 L972.4744,628 L969.3338,628 L969.3338,638.25 Z " fill="#000000"/><text fill="#000000" font-family="sans-serif" font-size="12" lengthAdjust="spacing" textLength="126" x="982.49" y="635.6543">TVariableExpression</text><!--MD5=[6f4f41c53b23ddd87718d20109f6c0a7]
class TBehaviouralEntity--><rect codeLine="33" fill="#FFFFFF" filter="url(#fudpmylw82r2k)" height="32" id="TBehaviouralEntity" style="stroke:#A9A9A9;stroke-width:1.5;" width="147" x="625.99" y="326"/><ellipse cx="640.99" cy="342" fill="#D3D3D3" rx="11" ry="11" style="stroke:#A9A9A9;stroke-width:1.0;"/><path d="M641.8338,348.75 L639.3806,348.75 L639.3806,338.5 L636.24,338.5 L636.24,336.3594 L644.9744,336.3594 L644.9744,338.5 L641.8338,338.5 L641.8338,348.75 Z " fill="#000000"/><text fill="#000000" font-family="sans-serif" font-size="12" lengthAdjust="spacing" textLength="115" x="654.99" y="346.1543">TBehaviouralEntity</text><!--MD5=[ae618dda0a34a3c1cb7f68e1aa574a53]
class TNullPointerLiteral--><rect codeLine="35" fill="#FFFFFF" filter="url(#fudpmylw82r2k)" height="32" id="TNullPointerLiteral" style="stroke:#A9A9A9;stroke-width:1.5;" width="145" x="41.99" y="718"/><ellipse cx="56.99" cy="734" fill="#D3D3D3" rx="11" ry="11" style="stroke:#A9A9A9;stroke-width:1.0;"/><path d="M57.8338,740.75 L55.3806,740.75 L55.3806,730.5 L52.24,730.5 L52.24,728.3594 L60.9744,728.3594 L60.9744,730.5 L57.8338,730.5 L57.8338,740.75 Z " fill="#000000"/><text fill="#000000" font-family="sans-serif" font-size="12" lengthAdjust="spacing" textLength="113" x="70.99" y="738.1543">TNullPointerLiteral</text><!--MD5=[82cddf6cc120c803d8d8d4249f30cc34]
class TStatement--><rect codeLine="37" fill="#FFFFFF" filter="url(#fudpmylw82r2k)" height="32" id="TStatement" style="stroke:#A9A9A9;stroke-width:1.5;" width="105" x="409.99" y="326"/><ellipse cx="424.99" cy="342" fill="#D3D3D3" rx="11" ry="11" style="stroke:#A9A9A9;stroke-width:1.0;"/><path d="M425.8338,348.75 L423.3806,348.75 L423.3806,338.5 L420.24,338.5 L420.24,336.3594 L428.9744,336.3594 L428.9744,338.5 L425.8338,338.5 L425.8338,348.75 Z " fill="#000000"/><text fill="#000000" font-family="sans-serif" font-size="12" lengthAdjust="spacing" textLength="73" x="438.99" y="346.1543">TStatement</text><!--MD5=[5485a7311dd4773c722feddc97eb68e5]
class TStringLiteral--><rect codeLine="39" fill="#FFFFFF" filter="url(#fudpmylw82r2k)" height="32" id="TStringLiteral" style="stroke:#A9A9A9;stroke-width:1.5;" width="114" x="222.49" y="718"/><ellipse cx="237.49" cy="734" fill="#D3D3D3" rx="11" ry="11" style="stroke:#A9A9A9;stroke-width:1.0;"/><path d="M238.3338,740.75 L235.8806,740.75 L235.8806,730.5 L232.74,730.5 L232.74,728.3594 L241.4744,728.3594 L241.4744,730.5 L238.3338,730.5 L238.3338,740.75 Z " fill="#000000"/><text fill="#000000" font-family="sans-serif" font-size="12" lengthAdjust="spacing" textLength="82" x="251.49" y="738.1543">TStringLiteral</text><!--MD5=[8e57a52592583dcb4a7153c0bf92d7a4]
class TBooleanLiteral--><rect codeLine="41" fill="#FFFFFF" filter="url(#fudpmylw82r2k)" height="32" id="TBooleanLiteral" style="stroke:#A9A9A9;stroke-width:1.5;" width="128" x="371.49" y="718"/><ellipse cx="386.49" cy="734" fill="#D3D3D3" rx="11" ry="11" style="stroke:#A9A9A9;stroke-width:1.0;"/><path d="M387.3338,740.75 L384.8806,740.75 L384.8806,730.5 L381.74,730.5 L381.74,728.3594 L390.4744,728.3594 L390.4744,730.5 L387.3338,730.5 L387.3338,740.75 Z " fill="#000000"/><text fill="#000000" font-family="sans-serif" font-size="12" lengthAdjust="spacing" textLength="96" x="400.49" y="738.1543">TBooleanLiteral</text><!--MD5=[9bd223fe1f846b38940bb758d632d4f3]
class TParameter--><rect codeLine="43" fill="#FFFFFF" filter="url(#fudpmylw82r2k)" height="32" id="TParameter" style="stroke:#A9A9A9;stroke-width:1.5;" width="105" x="894.99" y="122"/><ellipse cx="909.99" cy="138" fill="#D3D3D3" rx="11" ry="11" style="stroke:#A9A9A9;stroke-width:1.0;"/><path d="M910.8338,144.75 L908.3806,144.75 L908.3806,134.5 L905.24,134.5 L905.24,132.3594 L913.9744,132.3594 L913.9744,134.5 L910.8338,134.5 L910.8338,144.75 Z " fill="#000000"/><text fill="#000000" font-family="sans-serif" font-size="12" lengthAdjust="spacing" textLength="73" x="923.99" y="142.1543">TParameter</text><!--MD5=[ef54dd52a8ce6aeb090730f43af6589e]
class TLiteral--><rect codeLine="45" fill="#FFFFFF" filter="url(#fudpmylw82r2k)" height="52.8047" id="TLiteral" style="stroke:#A9A9A9;stroke-width:1.5;" width="80" x="317.49" y="605"/><ellipse cx="333.84" cy="621" fill="#D3D3D3" rx="11" ry="11" style="stroke:#A9A9A9;stroke-width:1.0;"/><path d="M334.6838,627.75 L332.2306,627.75 L332.2306,617.5 L329.09,617.5 L329.09,615.3594 L337.8244,615.3594 L337.8244,617.5 L334.6838,617.5 L334.6838,627.75 Z " fill="#000000"/><text fill="#000000" font-family="sans-serif" font-size="12" lengthAdjust="spacing" textLength="45" x="348.14" y="625.1543">TLiteral</text><line style="stroke:#A9A9A9;stroke-width:1.5;" x1="318.49" x2="396.49" y1="637" y2="637"/><text fill="#000000" font-family="sans-serif" font-size="11" lengthAdjust="spacing" textLength="68" x="323.49" y="651.2104">String value</text><!--MD5=[9c5cfc43956405e01c3202058701a51f]
class TReturnStatement--><rect codeLine="48" fill="#FFFFFF" filter="url(#fudpmylw82r2k)" height="32" id="TReturnStatement" style="stroke:#A9A9A9;stroke-width:1.5;" width="147" x="88.99" y="421"/><ellipse cx="103.99" cy="437" fill="#D3D3D3" rx="11" ry="11" style="stroke:#A9A9A9;stroke-width:1.0;"/><path d="M104.8338,443.75 L102.3806,443.75 L102.3806,433.5 L99.24,433.5 L99.24,431.3594 L107.9744,431.3594 L107.9744,433.5 L104.8338,433.5 L104.8338,443.75 Z " fill="#000000"/><text fill="#000000" font-family="sans-serif" font-size="12" lengthAdjust="spacing" textLength="115" x="117.99" y="441.1543">TReturnStatement</text><!--MD5=[87dfd02b7524b221d561f94cf1a1ca44]
class TCharacterLiteral--><rect codeLine="50" fill="#FFFFFF" filter="url(#fudpmylw82r2k)" height="32" id="TCharacterLiteral" style="stroke:#A9A9A9;stroke-width:1.5;" width="139" x="534.99" y="718"/><ellipse cx="549.99" cy="734" fill="#D3D3D3" rx="11" ry="11" style="stroke:#A9A9A9;stroke-width:1.0;"/><path d="M550.8338,740.75 L548.3806,740.75 L548.3806,730.5 L545.24,730.5 L545.24,728.3594 L553.9744,728.3594 L553.9744,730.5 L550.8338,730.5 L550.8338,740.75 Z " fill="#000000"/><text fill="#000000" font-family="sans-serif" font-size="12" lengthAdjust="spacing" textLength="107" x="563.99" y="738.1543">TCharacterLiteral</text><!--MD5=[783da01c964f5d77e03b7db4b79d5bd8]
class TWithArguments--><rect codeLine="52" fill="#FFFFFF" filter="url(#fudpmylw82r2k)" height="32" id="TWithArguments" style="stroke:#A9A9A9;stroke-width:1.5;" width="134" x="462.49" y="513"/><ellipse cx="477.49" cy="529" fill="#D3D3D3" rx="11" ry="11" style="stroke:#A9A9A9;stroke-width:1.0;"/><path d="M478.3338,535.75 L475.8806,535.75 L475.8806,525.5 L472.74,525.5 L472.74,523.3594 L481.4744,523.3594 L481.4744,525.5 L478.3338,525.5 L478.3338,535.75 Z " fill="#000000"/><text fill="#000000" font-family="sans-serif" font-size="12" lengthAdjust="spacing" textLength="102" x="491.49" y="533.1543">TWithArguments</text><!--MD5=[7e20e022571e30ec1001cf6eabd7f3e2]
class Model--><rect codeLine="85" fill="#FFFFE0" filter="url(#fudpmylw82r2k)" height="37.9375" id="Model" style="stroke:#D3D3D3;stroke-width:1.5;" width="93" x="1037.99" y="7"/><ellipse cx="1052.99" cy="25.9688" fill="#FFFFE0" rx="11" ry="11" style="stroke:#D3D3D3;stroke-width:1.0;"/><path d="M1053.8338,32.7188 L1051.3806,32.7188 L1051.3806,22.4688 L1048.24,22.4688 L1048.24,20.3281 L1056.9744,20.3281 L1056.9744,22.4688 L1053.8338,22.4688 L1053.8338,32.7188 Z " fill="#000000"/><text fill="#000000" font-family="sans-serif" font-size="12" font-style="italic" lengthAdjust="spacing" textLength="65" x="1064.99" y="23.1387">«External»</text><text fill="#000000" font-family="sans-serif" font-size="12" lengthAdjust="spacing" textLength="37" x="1078.99" y="37.1074">Model</text><!--MD5=[5dfbfa02edd09e25b5878b34167ebe67]
class TNamedEntity--><rect codeLine="86" fill="#FFFFE0" filter="url(#fudpmylw82r2k)" height="37.9375" id="TNamedEntity" style="stroke:#D3D3D3;stroke-width:1.5;" width="118" x="878.49" y="323"/><ellipse cx="893.49" cy="341.9688" fill="#FFFFE0" rx="11" ry="11" style="stroke:#D3D3D3;stroke-width:1.0;"/><path d="M894.3338,348.7188 L891.8806,348.7188 L891.8806,338.4688 L888.74,338.4688 L888.74,336.3281 L897.4744,336.3281 L897.4744,338.4688 L894.3338,338.4688 L894.3338,348.7188 Z " fill="#000000"/><text fill="#000000" font-family="sans-serif" font-size="12" font-style="italic" lengthAdjust="spacing" textLength="65" x="917.99" y="339.1387">«External»</text><text fill="#000000" font-family="sans-serif" font-size="12" lengthAdjust="spacing" textLength="86" x="907.49" y="353.1074">TNamedEntity</text><!--MD5=[e981667f5e808050f68287d0ddcdd288]
class TEntityMetaLevelDependency--><rect codeLine="84" fill="#FFFFE0" filter="url(#fudpmylw82r2k)" height="37.9375" id="TEntityMetaLevelDependency" style="stroke:#D3D3D3;stroke-width:1.5;" width="214" x="112.49" y="7"/><ellipse cx="127.49" cy="25.9688" fill="#FFFFE0" rx="11" ry="11" style="stroke:#D3D3D3;stroke-width:1.0;"/><path d="M128.3338,32.7188 L125.8806,32.7188 L125.8806,22.4688 L122.74,22.4688 L122.74,20.3281 L131.4744,20.3281 L131.4744,22.4688 L128.3338,22.4688 L128.3338,32.7188 Z " fill="#000000"/><text fill="#000000" font-family="sans-serif" font-size="12" font-style="italic" lengthAdjust="spacing" textLength="65" x="199.99" y="23.1387">«External»</text><text fill="#000000" font-family="sans-serif" font-size="12" lengthAdjust="spacing" textLength="182" x="141.49" y="37.1074">TEntityMetaLevelDependency</text><!--MD5=[51e14fea5358d9aa4bcd4f337e6fe2b4]
reverse link TStatement to TExpressionStatement--><path codeLine="55" d="M429.99,371.78 C411.65,388.03 389.46,407.68 374.51,420.93 " fill="none" id="TStatement-backto-TExpressionStatement" style="stroke:#000000;stroke-width:1.0;stroke-dasharray:7.0,7.0;"/><polygon fill="none" points="425.54,366.38,445.15,358.36,434.82,376.86,425.54,366.38" style="stroke:#000000;stroke-width:1.0;"/><!--MD5=[319e7655e3d9e4419361f612d15c353d]
reverse link TEntity to TScopableEntity--><path codeLine="56" d="M292.59,171.19 C337.65,191.03 393.31,215.54 428.37,230.98 " fill="none" id="TEntity-backto-TScopableEntity" style="stroke:#000000;stroke-width:1.0;stroke-dasharray:7.0,7.0;"/><polygon fill="none" points="289.51,177.48,274.02,163.01,295.15,164.67,289.51,177.48" style="stroke:#000000;stroke-width:1.0;"/><!--MD5=[0da86ed724dc50b88a4c61c4fec535ab]
reverse link TStatement to TStatementBlock--><path codeLine="57" d="M507.08,366.5 C545.18,383.55 599.35,406.13 637.8,420.86 " fill="none" id="TStatement-backto-TStatementBlock" style="stroke:#000000;stroke-width:1.0;stroke-dasharray:7.0,7.0;"/><polygon fill="none" points="504.07,372.82,488.78,358.15,509.88,360.08,504.07,372.82" style="stroke:#000000;stroke-width:1.0;"/><!--MD5=[fc3856925843f5c858f9926a3c6f8525]
link TStatement to TStatementBlock--><path codeLine="80" d="M508.5,358.05 C549.37,373.61 607.79,398.03 645.93,415.38 " fill="none" id="TStatement-to-TStatementBlock" style="stroke:#000000;stroke-width:1.0;"/><polygon fill="#FFFFFF" points="658.04,420.98,654.2732,414.8309,647.1483,415.9429,650.9152,422.092,658.04,420.98" style="stroke:#000000;stroke-width:1.0;"/><text fill="#000000" font-family="sans-serif" font-size="13" lengthAdjust="spacing" textLength="81" x="428.6627" y="377.9398">*statements</text><text fill="#000000" font-family="sans-serif" font-size="13" lengthAdjust="spacing" textLength="129" x="671.2329" y="409.9355">statementContainer</text><!--MD5=[4632f6c3f63f53c826a25c1000b5a03f]
reverse link TArgument to TExpression--><path codeLine="58" d="M482.84,462.41 C452.05,478.52 412.7,499.11 386.37,512.89 " fill="none" id="TArgument-backto-TExpression" style="stroke:#000000;stroke-width:1.0;stroke-dasharray:7.0,7.0;"/><polygon fill="none" points="479.74,456.13,500.7,453.06,486.23,468.54,479.74,456.13" style="stroke:#000000;stroke-width:1.0;"/><!--MD5=[e733af142c20af3a619af63092805ecb]
reverse link TEntity to TExpression--><path codeLine="59" d="M168.28,185.15 C102.99,249.58 6,368.12 71.49,453 C99.67,489.53 229.28,511.73 303.99,521.72 " fill="none" id="TEntity-backto-TExpression" style="stroke:#000000;stroke-width:1.0;stroke-dasharray:7.0,7.0;"/><polygon fill="none" points="163.6,179.94,182.86,171.12,173.3,190.03,163.6,179.94" style="stroke:#000000;stroke-width:1.0;"/><!--MD5=[d2faeef4f309a641166661f99aae66a4]
reverse link Model to FASTModel--><path codeLine="60" d="M1084.49,65.3 C1084.49,84.83 1084.49,107.46 1084.49,121.99 " fill="none" id="Model-backto-FASTModel" style="stroke:#000000;stroke-width:1.0;"/><polygon fill="none" points="1077.49,65.16,1084.49,45.16,1091.49,65.16,1077.49,65.16" style="stroke:#000000;stroke-width:1.0;"/><!--MD5=[eb71aa6644c06de9586b789d37e4c50e]
reverse link TBehaviouralEntity to TNamedBehaviouralEntity--><path codeLine="61" d="M747.37,367.2 C780.95,384.17 824.8,406.34 853.53,420.86 " fill="none" id="TBehaviouralEntity-backto-TNamedBehaviouralEntity" style="stroke:#000000;stroke-width:1.0;stroke-dasharray:7.0,7.0;"/><polygon fill="none" points="744.15,373.42,729.46,358.15,750.47,360.92,744.15,373.42" style="stroke:#000000;stroke-width:1.0;"/><!--MD5=[090ba6ec970f96929bca8baa8ca1d75b]
reverse link TNamedEntity to TNamedBehaviouralEntity--><path codeLine="62" d="M916.54,379.07 C908.14,393.54 898.92,409.43 892.35,420.74 " fill="none" id="TNamedEntity-backto-TNamedBehaviouralEntity" style="stroke:#000000;stroke-width:1.0;stroke-dasharray:7.0,7.0;"/><polygon fill="none" points="910.73,375.15,926.82,361.37,922.83,382.18,910.73,375.15" style="stroke:#000000;stroke-width:1.0;"/><!--MD5=[7133d00abd3a2d98479803ef02c46f80]
reverse link TEntityMetaLevelDependency to TEntity--><path codeLine="63" d="M219.49,65.46 C219.49,78.22 219.49,92.31 219.49,104.57 " fill="none" id="TEntityMetaLevelDependency-backto-TEntity" style="stroke:#000000;stroke-width:1.0;stroke-dasharray:7.0,7.0;"/><polygon fill="none" points="212.49,65.16,219.49,45.16,226.49,65.16,212.49,65.16" style="stroke:#000000;stroke-width:1.0;"/><!--MD5=[4d45a12d372ebae6bb6a4e5ebbfc1b3e]
reverse link TExpression to TVariableExpression--><path codeLine="64" d="M431.11,542.83 C435.64,543.58 440.12,544.31 444.49,545 C626.34,573.89 840.47,604.06 953.45,619.68 " fill="none" id="TExpression-backto-TVariableExpression" style="stroke:#000000;stroke-width:1.0;stroke-dasharray:7.0,7.0;"/><polygon fill="none" points="429.85,549.72,411.29,539.5,432.17,535.91,429.85,549.72" style="stroke:#000000;stroke-width:1.0;"/><!--MD5=[ccb4dfb620d14c9dc3e30ac6eee10179]
reverse link TParameter to TVariableExpression--><path codeLine="65" d="M987.55,165.88 C1033.77,200.45 1103.49,265.17 1103.49,341 C1103.49,341 1103.49,341 1103.49,438 C1103.49,507.82 1061.87,583.57 1042.36,615.24 " fill="none" id="TParameter-backto-TVariableExpression" style="stroke:#000000;stroke-width:1.0;stroke-dasharray:7.0,7.0;"/><polygon fill="none" points="983.36,171.48,971.18,154.14,991.52,160.11,983.36,171.48" style="stroke:#000000;stroke-width:1.0;"/><!--MD5=[da2de8d39e4ad42326c2f48563085663]
reverse link TNamedEntity to TVariableExpression--><path codeLine="66" d="M968.53,376.65 C978.94,389.65 989.64,405.18 996.49,421 C1026.06,489.23 1031.38,579.85 1032.31,615.34 " fill="none" id="TNamedEntity-backto-TVariableExpression" style="stroke:#000000;stroke-width:1.0;stroke-dasharray:7.0,7.0;"/><polygon fill="none" points="963.02,380.98,955.35,361.23,973.66,371.89,963.02,380.98" style="stroke:#000000;stroke-width:1.0;"/><!--MD5=[274d637ccef0e7a3e9588d75dcbbaf12]
reverse link TScopableEntity to TBehaviouralEntity--><path codeLine="67" d="M519.47,270.36 C563.37,287.59 622.85,310.93 661.2,325.98 " fill="none" id="TScopableEntity-backto-TBehaviouralEntity" style="stroke:#000000;stroke-width:1.0;stroke-dasharray:7.0,7.0;"/><polygon fill="none" points="516.89,276.87,500.83,263.05,522.01,263.83,516.89,276.87" style="stroke:#000000;stroke-width:1.0;"/><!--MD5=[53b63e94f658dcdab7a977b3e0e1a457]
reverse link TWithParameters to TBehaviouralEntity--><path codeLine="68" d="M751.01,278.78 C737.89,294.62 722.49,313.22 711.97,325.93 " fill="none" id="TWithParameters-backto-TBehaviouralEntity" style="stroke:#000000;stroke-width:1.0;stroke-dasharray:7.0,7.0;"/><polygon fill="none" points="745.63,274.3,763.78,263.36,756.41,283.23,745.63,274.3" style="stroke:#000000;stroke-width:1.0;"/><!--MD5=[262073a71743c20142a7ae0ce822b72a]
reverse link TLiteral to TNullPointerLiteral--><path codeLine="69" d="M298.78,656.78 C252.77,675.81 190.2,701.69 151.1,717.86 " fill="none" id="TLiteral-backto-TNullPointerLiteral" style="stroke:#000000;stroke-width:1.0;stroke-dasharray:7.0,7.0;"/><polygon fill="none" points="296.21,650.27,317.36,649.1,301.56,663.21,296.21,650.27" style="stroke:#000000;stroke-width:1.0;"/><!--MD5=[470c741dd09c298866ad3f30145e041f]
reverse link TScopableEntity to TStatement--><path codeLine="70" d="M462.49,283.37 C462.49,298.11 462.49,314.43 462.49,325.93 " fill="none" id="TScopableEntity-backto-TStatement" style="stroke:#000000;stroke-width:1.0;stroke-dasharray:7.0,7.0;"/><polygon fill="none" points="455.49,283.36,462.49,263.36,469.49,283.36,455.49,283.36" style="stroke:#000000;stroke-width:1.0;"/><!--MD5=[b67d85bc293c772c7196ee5adcb8b841]
reverse link TLiteral to TStringLiteral--><path codeLine="71" d="M325.17,674.15 C313.18,689.59 300.34,706.14 291.33,717.75 " fill="none" id="TLiteral-backto-TStringLiteral" style="stroke:#000000;stroke-width:1.0;stroke-dasharray:7.0,7.0;"/><polygon fill="none" points="319.81,669.63,337.61,658.12,330.87,678.21,319.81,669.63" style="stroke:#000000;stroke-width:1.0;"/><!--MD5=[21407b7edb5e5f14eeefbc7160675ceb]
reverse link TLiteral to TBooleanLiteral--><path codeLine="72" d="M389.81,674.15 C401.8,689.59 414.64,706.14 423.65,717.75 " fill="none" id="TLiteral-backto-TBooleanLiteral" style="stroke:#000000;stroke-width:1.0;stroke-dasharray:7.0,7.0;"/><polygon fill="none" points="384.11,678.21,377.37,658.12,395.17,669.63,384.11,678.21" style="stroke:#000000;stroke-width:1.0;"/><!--MD5=[89ca832aa95c0456d054005d97f19efc]
reverse link TExpression to TLiteral--><path codeLine="73" d="M357.49,565.64 C357.49,578.6 357.49,592.99 357.49,604.91 " fill="none" id="TExpression-backto-TLiteral" style="stroke:#000000;stroke-width:1.0;stroke-dasharray:7.0,7.0;"/><polygon fill="none" points="350.49,565.26,357.49,545.26,364.49,565.26,350.49,565.26" style="stroke:#000000;stroke-width:1.0;"/><!--MD5=[36e5dced90ce879e3f4d56ae7e1dbb6f]
reverse link TStatement to TReturnStatement--><path codeLine="74" d="M394.81,363.98 C338.87,381.32 260.81,405.52 210.95,420.98 " fill="none" id="TStatement-backto-TReturnStatement" style="stroke:#000000;stroke-width:1.0;stroke-dasharray:7.0,7.0;"/><polygon fill="none" points="392.78,357.28,413.96,358.05,396.93,370.65,392.78,357.28" style="stroke:#000000;stroke-width:1.0;"/><!--MD5=[eeecf0fe41770a0bf01dfe7beb63b06f]
reverse link TLiteral to TCharacterLiteral--><path codeLine="75" d="M416.34,656.44 C463.26,675.54 527.53,701.69 567.5,717.95 " fill="none" id="TLiteral-backto-TCharacterLiteral" style="stroke:#000000;stroke-width:1.0;stroke-dasharray:7.0,7.0;"/><polygon fill="none" points="413.61,662.89,397.72,648.87,418.89,649.92,413.61,662.89" style="stroke:#000000;stroke-width:1.0;"/><!--MD5=[b2b7a9a4fbc0dbcd50215ce7b72083e0]
reverse link TExpressionStatement to TExpression--><path codeLine="77" d="M357.49,466.34 C357.49,481.79 357.49,500.28 357.49,512.96 " fill="none" id="TExpressionStatement-backto-TExpression" style="stroke:#000000;stroke-width:1.0;"/><polygon fill="#FFFFFF" points="357.49,453.27,353.49,459.27,357.49,465.27,361.49,459.27,357.49,453.27" style="stroke:#000000;stroke-width:1.0;"/><text fill="#000000" font-family="sans-serif" font-size="13" lengthAdjust="spacing" textLength="178" x="151.4851" y="473.0821">expressionStatementOwner</text><text fill="#000000" font-family="sans-serif" font-size="13" lengthAdjust="spacing" textLength="69" x="369.3494" y="501.9578">expression</text><!--MD5=[06d1e7a4b8289d6e794f271b8bf15ac9]
link TArgument to TWithArguments--><path codeLine="78" d="M529.49,453.27 C529.49,466.02 529.49,484.52 529.49,499.93 " fill="none" id="TArgument-to-TWithArguments" style="stroke:#000000;stroke-width:1.0;"/><polygon fill="#FFFFFF" points="529.49,512.96,533.49,506.96,529.49,500.96,525.49,506.96,529.49,512.96" style="stroke:#000000;stroke-width:1.0;"/><text fill="#000000" font-family="sans-serif" font-size="13" lengthAdjust="spacing" textLength="77" x="445.1122" y="473.158">*arguments</text><text fill="#000000" font-family="sans-serif" font-size="13" lengthAdjust="spacing" textLength="103" x="408.7869" y="501.9578">argumentOwner</text><!--MD5=[b858f324135136ffa2914f3e1dde7c52]
reverse link TBehaviouralEntity to TStatementBlock--><path codeLine="79" d="M694.58,371.53 C691.78,387.83 688.37,407.61 686.08,420.93 " fill="none" id="TBehaviouralEntity-backto-TStatementBlock" style="stroke:#000000;stroke-width:1.0;"/><polygon fill="#FFFFFF" points="696.85,358.36,691.8924,363.5967,694.8195,370.187,699.7771,364.9503,696.85,358.36" style="stroke:#000000;stroke-width:1.0;"/><text fill="#000000" font-family="sans-serif" font-size="13" lengthAdjust="spacing" textLength="141" x="532.5366" y="378.0534">fastBehaviouralParent</text><text fill="#000000" font-family="sans-serif" font-size="13" lengthAdjust="spacing" textLength="101" x="568.6109" y="409.9175">statementBlock</text><!--MD5=[d1881b62c24eb21ca81021830d1d9318]
link TParameter to TWithParameters--><path codeLine="81" d="M923.35,154.1 C894.2,172.35 844.93,203.18 811.58,224.04 " fill="none" id="TParameter-to-TWithParameters" style="stroke:#000000;stroke-width:1.0;"/><polygon fill="#FFFFFF" points="800.5,230.97,807.7082,231.1744,810.6693,224.5993,803.4611,224.3949,800.5,230.97" style="stroke:#000000;stroke-width:1.0;"/><text fill="#000000" font-family="sans-serif" font-size="13" lengthAdjust="spacing" textLength="82" x="819.1099" y="174.0064">*parameters</text><text fill="#000000" font-family="sans-serif" font-size="13" lengthAdjust="spacing" textLength="108" x="682.1909" y="219.9713">parameterOwner</text><!--MD5=[1dab147ebe7ca98ff79141f8801baf81]
reverse link TReturnStatement to TExpression--><path codeLine="82" d="M207.19,458.63 C243.03,475.17 292.51,498.01 324.74,512.89 " fill="none" id="TReturnStatement-backto-TExpression" style="stroke:#000000;stroke-width:1.0;"/><polygon fill="#FFFFFF" points="195.13,453.06,198.9029,459.2053,206.0267,458.0862,202.2537,451.9409,195.13,453.06" style="stroke:#000000;stroke-width:1.0;"/><text fill="#000000" font-family="sans-serif" font-size="13" lengthAdjust="spacing" textLength="79" x="113.8576" y="472.9531">returnOwner</text><text fill="#000000" font-family="sans-serif" font-size="13" lengthAdjust="spacing" textLength="69" x="232.6228" y="501.8638">expression</text><!--MD5=[49614bdb7396457b0fc8eb64f8ba6121]
@startuml
hide empty members

skinparam class {
  BackgroundColor white
  ArrowColor black
  BorderColor darkGray
  BackgroundColor<<External>> LightYellow
  BorderColor<<External>> LightGray
}

class TExpressionStatement << (T,lightGrey) >> {
}
class TScopableEntity << (T,lightGrey) >> {
}
class TStatementBlock << (T,lightGrey) >> {
}
class TWithParameters << (T,lightGrey) >> {
}
class TExpression << (T,lightGrey) >> {
}
class FASTModel << (C,white) >> {
}
class TArgument << (T,lightGrey) >> {
}
class TNamedBehaviouralEntity << (T,lightGrey) >> {
}
class TEntity << (T,lightGrey) >> {
  Number endPos
  Number startPos
}
class TVariableExpression << (T,lightGrey) >> {
}
class TBehaviouralEntity << (T,lightGrey) >> {
}
class TNullPointerLiteral << (T,lightGrey) >> {
}
class TStatement << (T,lightGrey) >> {
}
class TStringLiteral << (T,lightGrey) >> {
}
class TBooleanLiteral << (T,lightGrey) >> {
}
class TParameter << (T,lightGrey) >> {
}
class TLiteral << (T,lightGrey) >> {
  String value
}
class TReturnStatement << (T,lightGrey) >> {
}
class TCharacterLiteral << (T,lightGrey) >> {
}
class TWithArguments << (T,lightGrey) >> {
}

TStatement <|.. TExpressionStatement
TEntity <|.. TScopableEntity
TStatement <|.. TStatementBlock
TArgument <|.. TExpression
TEntity <|.. TExpression
Model <|- - FASTModel
TBehaviouralEntity <|.. TNamedBehaviouralEntity
TNamedEntity <|.. TNamedBehaviouralEntity
TEntityMetaLevelDependency <|.. TEntity
TExpression <|.. TVariableExpression
TParameter <|.. TVariableExpression
TNamedEntity <|.. TVariableExpression
TScopableEntity <|.. TBehaviouralEntity
TWithParameters <|.. TBehaviouralEntity
TLiteral <|.. TNullPointerLiteral
TScopableEntity <|.. TStatement
TLiteral <|.. TStringLiteral
TLiteral <|.. TBooleanLiteral
TExpression <|.. TLiteral
TStatement <|.. TReturnStatement
TLiteral <|.. TCharacterLiteral

TExpressionStatement "expressionStatementOwner" o- - "expression" TExpression
TArgument " *arguments" - -o "argumentOwner" TWithArguments
TBehaviouralEntity "fastBehaviouralParent" o- - "statementBlock" TStatementBlock
TStatement " *statements" - -o "statementContainer" TStatementBlock
TParameter " *parameters" - -o "parameterOwner" TWithParameters
TReturnStatement "returnOwner" o- - "expression" TExpression

class TEntityMetaLevelDependency <<(T,LightYellow)External>>
class Model <<(T,LightYellow)External>>
class TNamedEntity <<(T,LightYellow)External>>
@enduml

PlantUML version 1.2021.5(Sun Apr 25 13:20:28 CEST 2021)
(GPL source distribution)
Java Runtime: OpenJDK Runtime Environment
JVM: OpenJDK 64-Bit Server VM
Default Encoding: UTF-8
Language: fr
Country: FR
--></g></svg>