<?xml version="1.0" encoding="UTF-8" standalone="no"?><svg xmlns="http://www.w3.org/2000/svg" xmlns:xlink="http://www.w3.org/1999/xlink" contentScriptType="application/ecmascript" contentStyleType="text/css" height="1034px" preserveAspectRatio="none" style="width:1758px;height:1034px;" version="1.1" viewBox="0 0 1758 1034" width="1758px" zoomAndPan="magnify"><defs><filter height="300%" id="f5bndoyh7h5cc" width="300%" x="-1" y="-1"><feGaussianBlur result="blurOut" stdDeviation="2.0"/><feColorMatrix in="blurOut" result="blurOut2" type="matrix" values="0 0 0 0 0 0 0 0 0 0 0 0 0 0 0 0 0 0 .4 0"/><feOffset dx="4.0" dy="4.0" in="blurOut2" result="blurOut3"/><feBlend in="SourceGraphic" in2="blurOut3" mode="normal"/></filter></defs><g><!--MD5=[68732f7a25cd503a65c9255f5da80803]
class TEntity--><rect codeLine="11" fill="#FFFFFF" filter="url(#f5bndoyh7h5cc)" height="65.6094" id="TEntity" style="stroke:#A9A9A9;stroke-width:1.5;" width="109" x="1244.5" y="105"/><ellipse cx="1275.25" cy="121" fill="#D3D3D3" rx="11" ry="11" style="stroke:#A9A9A9;stroke-width:1.0;"/><path d="M1276.0938,127.75 L1273.6406,127.75 L1273.6406,117.5 L1270.5,117.5 L1270.5,115.3594 L1279.2344,115.3594 L1279.2344,117.5 L1276.0938,117.5 L1276.0938,127.75 Z " fill="#000000"/><text fill="#000000" font-family="sans-serif" font-size="12" lengthAdjust="spacing" textLength="42" x="1292.75" y="125.1543">TEntity</text><line style="stroke:#A9A9A9;stroke-width:1.5;" x1="1245.5" x2="1352.5" y1="137" y2="137"/><text fill="#000000" font-family="sans-serif" font-size="11" lengthAdjust="spacing" textLength="91" x="1250.5" y="151.2104">Number endPos</text><text fill="#000000" font-family="sans-serif" font-size="11" lengthAdjust="spacing" textLength="97" x="1250.5" y="164.0151">Number startPos</text><!--MD5=[6f4f41c53b23ddd87718d20109f6c0a7]
class TBehaviouralEntity--><rect codeLine="15" fill="#FFFFFF" filter="url(#f5bndoyh7h5cc)" height="32" id="TBehaviouralEntity" style="stroke:#A9A9A9;stroke-width:1.5;" width="147" x="184.5" y="896"/><ellipse cx="199.5" cy="912" fill="#D3D3D3" rx="11" ry="11" style="stroke:#A9A9A9;stroke-width:1.0;"/><path d="M200.3438,918.75 L197.8906,918.75 L197.8906,908.5 L194.75,908.5 L194.75,906.3594 L203.4844,906.3594 L203.4844,908.5 L200.3438,908.5 L200.3438,918.75 Z " fill="#000000"/><text fill="#000000" font-family="sans-serif" font-size="12" lengthAdjust="spacing" textLength="115" x="213.5" y="916.1543">TBehaviouralEntity</text><!--MD5=[d6926080ffcc2ec73b2ef8c99b0a0e12]
class THasImmediateSource--><rect codeLine="17" fill="#FFFFFF" filter="url(#f5bndoyh7h5cc)" height="32" id="THasImmediateSource" style="stroke:#A9A9A9;stroke-width:1.5;" width="172" x="1441" y="10"/><ellipse cx="1456" cy="26" fill="#D3D3D3" rx="11" ry="11" style="stroke:#A9A9A9;stroke-width:1.0;"/><path d="M1456.8438,32.75 L1454.3906,32.75 L1454.3906,22.5 L1451.25,22.5 L1451.25,20.3594 L1459.9844,20.3594 L1459.9844,22.5 L1456.8438,22.5 L1456.8438,32.75 Z " fill="#000000"/><text fill="#000000" font-family="sans-serif" font-size="12" lengthAdjust="spacing" textLength="140" x="1470" y="30.1543">THasImmediateSource</text><!--MD5=[9bd223fe1f846b38940bb758d632d4f3]
class TParameter--><rect codeLine="19" fill="#FFFFFF" filter="url(#f5bndoyh7h5cc)" height="32" id="TParameter" style="stroke:#A9A9A9;stroke-width:1.5;" width="105" x="231.5" y="712"/><ellipse cx="246.5" cy="728" fill="#D3D3D3" rx="11" ry="11" style="stroke:#A9A9A9;stroke-width:1.0;"/><path d="M247.3438,734.75 L244.8906,734.75 L244.8906,724.5 L241.75,724.5 L241.75,722.3594 L250.4844,722.3594 L250.4844,724.5 L247.3438,724.5 L247.3438,734.75 Z " fill="#000000"/><text fill="#000000" font-family="sans-serif" font-size="12" lengthAdjust="spacing" textLength="73" x="260.5" y="732.1543">TParameter</text><!--MD5=[5485a7311dd4773c722feddc97eb68e5]
class TStringLiteral--><rect codeLine="21" fill="#FFFFFF" filter="url(#f5bndoyh7h5cc)" height="32" id="TStringLiteral" style="stroke:#A9A9A9;stroke-width:1.5;" width="114" x="372" y="712"/><ellipse cx="387" cy="728" fill="#D3D3D3" rx="11" ry="11" style="stroke:#A9A9A9;stroke-width:1.0;"/><path d="M387.8438,734.75 L385.3906,734.75 L385.3906,724.5 L382.25,724.5 L382.25,722.3594 L390.9844,722.3594 L390.9844,724.5 L387.8438,724.5 L387.8438,734.75 Z " fill="#000000"/><text fill="#000000" font-family="sans-serif" font-size="12" lengthAdjust="spacing" textLength="82" x="401" y="732.1543">TStringLiteral</text><!--MD5=[783da01c964f5d77e03b7db4b79d5bd8]
class TWithArguments--><rect codeLine="23" fill="#FFFFFF" filter="url(#f5bndoyh7h5cc)" height="32" id="TWithArguments" style="stroke:#A9A9A9;stroke-width:1.5;" width="134" x="1039" y="712"/><ellipse cx="1054" cy="728" fill="#D3D3D3" rx="11" ry="11" style="stroke:#A9A9A9;stroke-width:1.0;"/><path d="M1054.8438,734.75 L1052.3906,734.75 L1052.3906,724.5 L1049.25,724.5 L1049.25,722.3594 L1057.9844,722.3594 L1057.9844,724.5 L1054.8438,724.5 L1054.8438,734.75 Z " fill="#000000"/><text fill="#000000" font-family="sans-serif" font-size="12" lengthAdjust="spacing" textLength="102" x="1068" y="732.1543">TWithArguments</text><!--MD5=[bdc9c1a92da19ff1130428a2b0b11364]
class TNamedBehaviouralEntity--><rect codeLine="25" fill="#FFFFFF" filter="url(#f5bndoyh7h5cc)" height="32" id="TNamedBehaviouralEntity" style="stroke:#A9A9A9;stroke-width:1.5;" width="191" x="65.5" y="988"/><ellipse cx="80.5" cy="1004" fill="#D3D3D3" rx="11" ry="11" style="stroke:#A9A9A9;stroke-width:1.0;"/><path d="M81.3438,1010.75 L78.8906,1010.75 L78.8906,1000.5 L75.75,1000.5 L75.75,998.3594 L84.4844,998.3594 L84.4844,1000.5 L81.3438,1000.5 L81.3438,1010.75 Z " fill="#000000"/><text fill="#000000" font-family="sans-serif" font-size="12" lengthAdjust="spacing" textLength="159" x="94.5" y="1008.1543">TNamedBehaviouralEntity</text><!--MD5=[82cddf6cc120c803d8d8d4249f30cc34]
class TStatement--><rect codeLine="27" fill="#FFFFFF" filter="url(#f5bndoyh7h5cc)" height="32" id="TStatement" style="stroke:#A9A9A9;stroke-width:1.5;" width="105" x="1046.5" y="323"/><ellipse cx="1061.5" cy="339" fill="#D3D3D3" rx="11" ry="11" style="stroke:#A9A9A9;stroke-width:1.0;"/><path d="M1062.3438,345.75 L1059.8906,345.75 L1059.8906,335.5 L1056.75,335.5 L1056.75,333.3594 L1065.4844,333.3594 L1065.4844,335.5 L1062.3438,335.5 L1062.3438,345.75 Z " fill="#000000"/><text fill="#000000" font-family="sans-serif" font-size="12" lengthAdjust="spacing" textLength="73" x="1075.5" y="343.1543">TStatement</text><!--MD5=[e5125c99485fa233c674344f5d996e7e]
class TStatementBlock--><rect codeLine="29" fill="#FFFFFF" filter="url(#f5bndoyh7h5cc)" height="32" id="TStatementBlock" style="stroke:#A9A9A9;stroke-width:1.5;" width="138" x="1174" y="988"/><ellipse cx="1189" cy="1004" fill="#D3D3D3" rx="11" ry="11" style="stroke:#A9A9A9;stroke-width:1.0;"/><path d="M1189.8438,1010.75 L1187.3906,1010.75 L1187.3906,1000.5 L1184.25,1000.5 L1184.25,998.3594 L1192.9844,998.3594 L1192.9844,1000.5 L1189.8438,1000.5 L1189.8438,1010.75 Z " fill="#000000"/><text fill="#000000" font-family="sans-serif" font-size="12" lengthAdjust="spacing" textLength="106" x="1203" y="1008.1543">TStatementBlock</text><!--MD5=[5dfbfa02edd09e25b5878b34167ebe67]
class TNamedEntity--><rect codeLine="31" fill="#FFFFFF" filter="url(#f5bndoyh7h5cc)" height="32" id="TNamedEntity" style="stroke:#A9A9A9;stroke-width:1.5;" width="118" x="7" y="507"/><ellipse cx="22" cy="523" fill="#D3D3D3" rx="11" ry="11" style="stroke:#A9A9A9;stroke-width:1.0;"/><path d="M22.8438,529.75 L20.3906,529.75 L20.3906,519.5 L17.25,519.5 L17.25,517.3594 L25.9844,517.3594 L25.9844,519.5 L22.8438,519.5 L22.8438,529.75 Z " fill="#000000"/><text fill="#000000" font-family="sans-serif" font-size="12" lengthAdjust="spacing" textLength="86" x="36" y="527.1543">TNamedEntity</text><!--MD5=[ef54dd52a8ce6aeb090730f43af6589e]
class TLiteral--><rect codeLine="33" fill="#FFFFFF" filter="url(#f5bndoyh7h5cc)" height="52.8047" id="TLiteral" style="stroke:#A9A9A9;stroke-width:1.5;" width="80" x="891" y="599"/><ellipse cx="907.35" cy="615" fill="#D3D3D3" rx="11" ry="11" style="stroke:#A9A9A9;stroke-width:1.0;"/><path d="M908.1938,621.75 L905.7406,621.75 L905.7406,611.5 L902.6,611.5 L902.6,609.3594 L911.3344,609.3594 L911.3344,611.5 L908.1938,611.5 L908.1938,621.75 Z " fill="#000000"/><text fill="#000000" font-family="sans-serif" font-size="12" lengthAdjust="spacing" textLength="45" x="921.65" y="619.1543">TLiteral</text><line style="stroke:#A9A9A9;stroke-width:1.5;" x1="892" x2="970" y1="631" y2="631"/><text fill="#000000" font-family="sans-serif" font-size="11" lengthAdjust="spacing" textLength="68" x="897" y="645.2104">String value</text><!--MD5=[9c5cfc43956405e01c3202058701a51f]
class TReturnStatement--><rect codeLine="36" fill="#FFFFFF" filter="url(#f5bndoyh7h5cc)" height="32" id="TReturnStatement" style="stroke:#A9A9A9;stroke-width:1.5;" width="147" x="963.5" y="415"/><ellipse cx="978.5" cy="431" fill="#D3D3D3" rx="11" ry="11" style="stroke:#A9A9A9;stroke-width:1.0;"/><path d="M979.3438,437.75 L976.8906,437.75 L976.8906,427.5 L973.75,427.5 L973.75,425.3594 L982.4844,425.3594 L982.4844,427.5 L979.3438,427.5 L979.3438,437.75 Z " fill="#000000"/><text fill="#000000" font-family="sans-serif" font-size="12" lengthAdjust="spacing" textLength="115" x="992.5" y="435.1543">TReturnStatement</text><!--MD5=[73ef187932967aa63dd4a169d5713a69]
class TWithParameters--><rect codeLine="38" fill="#FFFFFF" filter="url(#f5bndoyh7h5cc)" height="32" id="TWithParameters" style="stroke:#A9A9A9;stroke-width:1.5;" width="139" x="231.5" y="804"/><ellipse cx="246.5" cy="820" fill="#D3D3D3" rx="11" ry="11" style="stroke:#A9A9A9;stroke-width:1.0;"/><path d="M247.3438,826.75 L244.8906,826.75 L244.8906,816.5 L241.75,816.5 L241.75,814.3594 L250.4844,814.3594 L250.4844,816.5 L247.3438,816.5 L247.3438,826.75 Z " fill="#000000"/><text fill="#000000" font-family="sans-serif" font-size="12" lengthAdjust="spacing" textLength="107" x="260.5" y="824.1543">TWithParameters</text><!--MD5=[8e57a52592583dcb4a7153c0bf92d7a4]
class TBooleanLiteral--><rect codeLine="40" fill="#FFFFFF" filter="url(#f5bndoyh7h5cc)" height="32" id="TBooleanLiteral" style="stroke:#A9A9A9;stroke-width:1.5;" width="128" x="521" y="712"/><ellipse cx="536" cy="728" fill="#D3D3D3" rx="11" ry="11" style="stroke:#A9A9A9;stroke-width:1.0;"/><path d="M536.8438,734.75 L534.3906,734.75 L534.3906,724.5 L531.25,724.5 L531.25,722.3594 L539.9844,722.3594 L539.9844,724.5 L536.8438,724.5 L536.8438,734.75 Z " fill="#000000"/><text fill="#000000" font-family="sans-serif" font-size="12" lengthAdjust="spacing" textLength="96" x="550" y="732.1543">TBooleanLiteral</text><!--MD5=[fbec603a0d5e6685cd32610a73228596]
class TScopableEntity--><rect codeLine="42" fill="#FFFFFF" filter="url(#f5bndoyh7h5cc)" height="32" id="TScopableEntity" style="stroke:#A9A9A9;stroke-width:1.5;" width="132" x="1033" y="231"/><ellipse cx="1048" cy="247" fill="#D3D3D3" rx="11" ry="11" style="stroke:#A9A9A9;stroke-width:1.0;"/><path d="M1048.8438,253.75 L1046.3906,253.75 L1046.3906,243.5 L1043.25,243.5 L1043.25,241.3594 L1051.9844,241.3594 L1051.9844,243.5 L1048.8438,243.5 L1048.8438,253.75 Z " fill="#000000"/><text fill="#000000" font-family="sans-serif" font-size="12" lengthAdjust="spacing" textLength="100" x="1062" y="251.1543">TScopableEntity</text><!--MD5=[4754ae7251826076100d31acef09ca32]
class TExpression--><rect codeLine="44" fill="#FFFFFF" filter="url(#f5bndoyh7h5cc)" height="32" id="TExpression" style="stroke:#A9A9A9;stroke-width:1.5;" width="107" x="952.5" y="507"/><ellipse cx="967.5" cy="523" fill="#D3D3D3" rx="11" ry="11" style="stroke:#A9A9A9;stroke-width:1.0;"/><path d="M968.3438,529.75 L965.8906,529.75 L965.8906,519.5 L962.75,519.5 L962.75,517.3594 L971.4844,517.3594 L971.4844,519.5 L968.3438,519.5 L968.3438,529.75 Z " fill="#000000"/><text fill="#000000" font-family="sans-serif" font-size="12" lengthAdjust="spacing" textLength="75" x="981.5" y="527.1543">TExpression</text><!--MD5=[87dfd02b7524b221d561f94cf1a1ca44]
class TCharacterLiteral--><rect codeLine="46" fill="#FFFFFF" filter="url(#f5bndoyh7h5cc)" height="32" id="TCharacterLiteral" style="stroke:#A9A9A9;stroke-width:1.5;" width="139" x="684.5" y="712"/><ellipse cx="699.5" cy="728" fill="#D3D3D3" rx="11" ry="11" style="stroke:#A9A9A9;stroke-width:1.0;"/><path d="M700.3438,734.75 L697.8906,734.75 L697.8906,724.5 L694.75,724.5 L694.75,722.3594 L703.4844,722.3594 L703.4844,724.5 L700.3438,724.5 L700.3438,734.75 Z " fill="#000000"/><text fill="#000000" font-family="sans-serif" font-size="12" lengthAdjust="spacing" textLength="107" x="713.5" y="732.1543">TCharacterLiteral</text><!--MD5=[4dd683cd8fb8dc056a44b999a3cf5480]
class FASTModel--><rect codeLine="48" fill="#FFFFFF" filter="url(#f5bndoyh7h5cc)" height="32" id="FASTModel" style="stroke:#A9A9A9;stroke-width:1.5;" width="99" x="1645.5" y="122"/><ellipse cx="1660.5" cy="138" fill="#FFFFFF" rx="11" ry="11" style="stroke:#A9A9A9;stroke-width:1.0;"/><path d="M1663.4688,143.6406 Q1662.8906,143.9375 1662.25,144.0781 Q1661.6094,144.2344 1660.9063,144.2344 Q1658.4063,144.2344 1657.0781,142.5938 Q1655.7656,140.9375 1655.7656,137.8125 Q1655.7656,134.6875 1657.0781,133.0313 Q1658.4063,131.375 1660.9063,131.375 Q1661.6094,131.375 1662.25,131.5313 Q1662.9063,131.6875 1663.4688,131.9844 L1663.4688,134.7031 Q1662.8438,134.125 1662.25,133.8594 Q1661.6563,133.5781 1661.0313,133.5781 Q1659.6875,133.5781 1659,134.6563 Q1658.3125,135.7188 1658.3125,137.8125 Q1658.3125,139.9063 1659,140.9844 Q1659.6875,142.0469 1661.0313,142.0469 Q1661.6563,142.0469 1662.25,141.7813 Q1662.8438,141.5 1663.4688,140.9219 L1663.4688,143.6406 Z " fill="#000000"/><text fill="#000000" font-family="sans-serif" font-size="12" lengthAdjust="spacing" textLength="67" x="1674.5" y="142.1543">FASTModel</text><!--MD5=[9342578375d27f7d6f0fb6a24ebe566c]
class TArgument--><rect codeLine="50" fill="#FFFFFF" filter="url(#f5bndoyh7h5cc)" height="32" id="TArgument" style="stroke:#A9A9A9;stroke-width:1.5;" width="100" x="1031" y="609.5"/><ellipse cx="1046" cy="625.5" fill="#D3D3D3" rx="11" ry="11" style="stroke:#A9A9A9;stroke-width:1.0;"/><path d="M1046.8438,632.25 L1044.3906,632.25 L1044.3906,622 L1041.25,622 L1041.25,619.8594 L1049.9844,619.8594 L1049.9844,622 L1046.8438,622 L1046.8438,632.25 Z " fill="#000000"/><text fill="#000000" font-family="sans-serif" font-size="12" lengthAdjust="spacing" textLength="68" x="1060" y="629.6543">TArgument</text><!--MD5=[ae618dda0a34a3c1cb7f68e1aa574a53]
class TNullPointerLiteral--><rect codeLine="52" fill="#FFFFFF" filter="url(#f5bndoyh7h5cc)" height="32" id="TNullPointerLiteral" style="stroke:#A9A9A9;stroke-width:1.5;" width="145" x="858.5" y="712"/><ellipse cx="873.5" cy="728" fill="#D3D3D3" rx="11" ry="11" style="stroke:#A9A9A9;stroke-width:1.0;"/><path d="M874.3438,734.75 L871.8906,734.75 L871.8906,724.5 L868.75,724.5 L868.75,722.3594 L877.4844,722.3594 L877.4844,724.5 L874.3438,724.5 L874.3438,734.75 Z " fill="#000000"/><text fill="#000000" font-family="sans-serif" font-size="12" lengthAdjust="spacing" textLength="113" x="887.5" y="732.1543">TNullPointerLiteral</text><!--MD5=[7e87e452d4f704b76a55388b35a6d1cd]
class TExpressionStatement--><rect codeLine="54" fill="#FFFFFF" filter="url(#f5bndoyh7h5cc)" height="32" id="TExpressionStatement" style="stroke:#A9A9A9;stroke-width:1.5;" width="173" x="682.5" y="609.5"/><ellipse cx="697.5" cy="625.5" fill="#D3D3D3" rx="11" ry="11" style="stroke:#A9A9A9;stroke-width:1.0;"/><path d="M698.3438,632.25 L695.8906,632.25 L695.8906,622 L692.75,622 L692.75,619.8594 L701.4844,619.8594 L701.4844,622 L698.3438,622 L698.3438,632.25 Z " fill="#000000"/><text fill="#000000" font-family="sans-serif" font-size="12" lengthAdjust="spacing" textLength="141" x="711.5" y="629.6543">TExpressionStatement</text><!--MD5=[d1ba685bbff6f561cd5e3333a37608b9]
class TVariableExpression--><rect codeLine="56" fill="#FFFFFF" filter="url(#f5bndoyh7h5cc)" height="32" id="TVariableExpression" style="stroke:#A9A9A9;stroke-width:1.5;" width="158" x="231" y="609.5"/><ellipse cx="246" cy="625.5" fill="#D3D3D3" rx="11" ry="11" style="stroke:#A9A9A9;stroke-width:1.0;"/><path d="M246.8438,632.25 L244.3906,632.25 L244.3906,622 L241.25,622 L241.25,619.8594 L249.9844,619.8594 L249.9844,622 L246.8438,622 L246.8438,632.25 Z " fill="#000000"/><text fill="#000000" font-family="sans-serif" font-size="12" lengthAdjust="spacing" textLength="126" x="260" y="629.6543">TVariableExpression</text><!--MD5=[e981667f5e808050f68287d0ddcdd288]
class TEntityMetaLevelDependency--><rect codeLine="89" fill="#FFFFE0" filter="url(#f5bndoyh7h5cc)" height="37.9375" id="TEntityMetaLevelDependency" style="stroke:#D3D3D3;stroke-width:1.5;" width="214" x="1192" y="7"/><ellipse cx="1207" cy="25.9688" fill="#FFFFE0" rx="11" ry="11" style="stroke:#D3D3D3;stroke-width:1.0;"/><path d="M1207.8438,32.7188 L1205.3906,32.7188 L1205.3906,22.4688 L1202.25,22.4688 L1202.25,20.3281 L1210.9844,20.3281 L1210.9844,22.4688 L1207.8438,22.4688 L1207.8438,32.7188 Z " fill="#000000"/><text fill="#000000" font-family="sans-serif" font-size="12" font-style="italic" lengthAdjust="spacing" textLength="65" x="1279.5" y="23.1387">«External»</text><text fill="#000000" font-family="sans-serif" font-size="12" lengthAdjust="spacing" textLength="182" x="1221" y="37.1074">TEntityMetaLevelDependency</text><!--MD5=[7e20e022571e30ec1001cf6eabd7f3e2]
class Model--><rect codeLine="88" fill="#FFFFE0" filter="url(#f5bndoyh7h5cc)" height="37.9375" id="Model" style="stroke:#D3D3D3;stroke-width:1.5;" width="93" x="1648.5" y="7"/><ellipse cx="1663.5" cy="25.9688" fill="#FFFFE0" rx="11" ry="11" style="stroke:#D3D3D3;stroke-width:1.0;"/><path d="M1664.3438,32.7188 L1661.8906,32.7188 L1661.8906,22.4688 L1658.75,22.4688 L1658.75,20.3281 L1667.4844,20.3281 L1667.4844,22.4688 L1664.3438,22.4688 L1664.3438,32.7188 Z " fill="#000000"/><text fill="#000000" font-family="sans-serif" font-size="12" font-style="italic" lengthAdjust="spacing" textLength="65" x="1675.5" y="23.1387">«External»</text><text fill="#000000" font-family="sans-serif" font-size="12" lengthAdjust="spacing" textLength="37" x="1689.5" y="37.1074">Model</text><!--MD5=[7133d00abd3a2d98479803ef02c46f80]
reverse link TEntityMetaLevelDependency to TEntity--><path codeLine="59" d="M1299,65.46 C1299,78.22 1299,92.31 1299,104.57 " fill="none" id="TEntityMetaLevelDependency-backto-TEntity" style="stroke:#000000;stroke-width:1.0;stroke-dasharray:7.0,7.0;"/><polygon fill="none" points="1292,65.16,1299,45.16,1306,65.16,1292,65.16" style="stroke:#000000;stroke-width:1.0;"/><!--MD5=[274d637ccef0e7a3e9588d75dcbbaf12]
reverse link TScopableEntity to TBehaviouralEntity--><path codeLine="60" d="M1012.77,255.98 C783.82,278.31 178,345.4 178,430 C178,430 178,430 178,729 C178,795.96 223.94,865.95 246.2,895.93 " fill="none" id="TScopableEntity-backto-TBehaviouralEntity" style="stroke:#000000;stroke-width:1.0;stroke-dasharray:7.0,7.0;"/><polygon fill="none" points="1012.18,249,1032.76,254.05,1013.53,262.94,1012.18,249" style="stroke:#000000;stroke-width:1.0;"/><!--MD5=[53b63e94f658dcdab7a977b3e0e1a457]
reverse link TWithParameters to TBehaviouralEntity--><path codeLine="61" d="M284.93,854.64 C278.13,868.86 270.56,884.7 265.19,895.96 " fill="none" id="TWithParameters-backto-TBehaviouralEntity" style="stroke:#000000;stroke-width:1.0;stroke-dasharray:7.0,7.0;"/><polygon fill="none" points="278.77,851.3,293.71,836.27,291.4,857.33,278.77,851.3" style="stroke:#000000;stroke-width:1.0;"/><!--MD5=[bc4d7fd74990361c7cce03e5b2db1f64]
reverse link TVariableExpression to TParameter--><path codeLine="62" d="M301.02,661.2 C296.54,678.51 291.36,698.55 287.9,711.92 " fill="none" id="TVariableExpression-backto-TParameter" style="stroke:#000000;stroke-width:1.0;stroke-dasharray:7.0,7.0;"/><polygon fill="none" points="294.26,659.37,306.05,641.76,307.82,662.88,294.26,659.37" style="stroke:#000000;stroke-width:1.0;"/><!--MD5=[b67d85bc293c772c7196ee5adcb8b841]
reverse link TLiteral to TStringLiteral--><path codeLine="63" d="M871.68,651.35 C709.64,698.03 660.81,683.22 503,712 C497.58,712.99 491.95,714.06 486.32,715.15 " fill="none" id="TLiteral-backto-TStringLiteral" style="stroke:#000000;stroke-width:1.0;stroke-dasharray:7.0,7.0;"/><polygon fill="none" points="869.76,644.62,890.93,645.68,873.72,658.05,869.76,644.62" style="stroke:#000000;stroke-width:1.0;"/><!--MD5=[eb71aa6644c06de9586b789d37e4c50e]
reverse link TBehaviouralEntity to TNamedBehaviouralEntity--><path codeLine="64" d="M226.69,942.05 C210.2,957.35 190.67,975.47 177.21,987.96 " fill="none" id="TBehaviouralEntity-backto-TNamedBehaviouralEntity" style="stroke:#000000;stroke-width:1.0;stroke-dasharray:7.0,7.0;"/><polygon fill="none" points="222.12,936.74,241.55,928.27,231.65,947,222.12,936.74" style="stroke:#000000;stroke-width:1.0;"/><!--MD5=[090ba6ec970f96929bca8baa8ca1d75b]
reverse link TNamedEntity to TNamedBehaviouralEntity--><path codeLine="65" d="M71.84,559 C78.05,599.37 87,667.78 87,727 C87,727 87,727 87,821 C87,887.17 129.5,957.57 150.08,987.79 " fill="none" id="TNamedEntity-backto-TNamedBehaviouralEntity" style="stroke:#000000;stroke-width:1.0;stroke-dasharray:7.0,7.0;"/><polygon fill="none" points="64.92,560.08,68.66,539.22,78.74,557.86,64.92,560.08" style="stroke:#000000;stroke-width:1.0;"/><!--MD5=[470c741dd09c298866ad3f30145e041f]
reverse link TScopableEntity to TStatement--><path codeLine="66" d="M1099,283.61 C1099,297.31 1099,312.22 1099,322.96 " fill="none" id="TScopableEntity-backto-TStatement" style="stroke:#000000;stroke-width:1.0;stroke-dasharray:7.0,7.0;"/><polygon fill="none" points="1092,283.27,1099,263.27,1106,283.27,1092,283.27" style="stroke:#000000;stroke-width:1.0;"/><!--MD5=[0da86ed724dc50b88a4c61c4fec535ab]
reverse link TStatement to TStatementBlock--><path codeLine="67" d="M1128.66,367.83 C1166.66,399.59 1226,455.79 1226,522 C1226,522 1226,522 1226,821 C1226,882.93 1226,956.72 1233.63,987.9 " fill="none" id="TStatement-backto-TStatementBlock" style="stroke:#000000;stroke-width:1.0;stroke-dasharray:7.0,7.0;"/><polygon fill="none" points="1124.04,373.09,1113,355.01,1132.91,362.26,1124.04,373.09" style="stroke:#000000;stroke-width:1.0;"/><!--MD5=[fc3856925843f5c858f9926a3c6f8525]
link TStatement to TStatementBlock--><path codeLine="84" d="M1133.8,355.01 C1182.1,382.61 1261,445.65 1261,522 C1261,522 1261,522 1261,821 C1261,875.43 1261,939.02 1255.52,974.79 " fill="none" id="TStatement-to-TStatementBlock" style="stroke:#000000;stroke-width:1.0;"/><polygon fill="#FFFFFF" points="1252.92,987.9,1258.0102,982.7922,1255.2531,976.129,1250.1629,981.2368,1252.92,987.9" style="stroke:#000000;stroke-width:1.0;"/><text fill="#000000" font-family="sans-serif" font-size="13" lengthAdjust="spacing" textLength="81" x="1050.1531" y="375.1813">*statements</text><text fill="#000000" font-family="sans-serif" font-size="13" lengthAdjust="spacing" textLength="129" x="1278.5019" y="976.8772">statementContainer</text><!--MD5=[89ca832aa95c0456d054005d97f19efc]
reverse link TExpression to TLiteral--><path codeLine="68" d="M982.59,555.37 C972.14,569.38 959.98,585.66 950.1,598.91 " fill="none" id="TExpression-backto-TLiteral" style="stroke:#000000;stroke-width:1.0;stroke-dasharray:7.0,7.0;"/><polygon fill="none" points="977.04,551.11,994.61,539.26,988.26,559.48,977.04,551.11" style="stroke:#000000;stroke-width:1.0;"/><!--MD5=[36e5dced90ce879e3f4d56ae7e1dbb6f]
reverse link TStatement to TReturnStatement--><path codeLine="69" d="M1076.83,372.18 C1066.78,386.77 1055.38,403.31 1047.36,414.96 " fill="none" id="TStatement-backto-TReturnStatement" style="stroke:#000000;stroke-width:1.0;stroke-dasharray:7.0,7.0;"/><polygon fill="none" points="1071.37,367.77,1088.48,355.27,1082.9,375.71,1071.37,367.77" style="stroke:#000000;stroke-width:1.0;"/><!--MD5=[21407b7edb5e5f14eeefbc7160675ceb]
reverse link TLiteral to TBooleanLiteral--><path codeLine="70" d="M871.7,651.8 C785.39,681.2 703.99,701.07 649.07,713.4 " fill="none" id="TLiteral-backto-TBooleanLiteral" style="stroke:#000000;stroke-width:1.0;stroke-dasharray:7.0,7.0;"/><polygon fill="none" points="869.58,645.12,890.77,645.17,874.17,658.35,869.58,645.12" style="stroke:#000000;stroke-width:1.0;"/><!--MD5=[319e7655e3d9e4419361f612d15c353d]
reverse link TEntity to TScopableEntity--><path codeLine="71" d="M1226.35,177.87 C1191.92,196.29 1152.81,217.21 1127.13,230.95 " fill="none" id="TEntity-backto-TScopableEntity" style="stroke:#000000;stroke-width:1.0;stroke-dasharray:7.0,7.0;"/><polygon fill="none" points="1223.41,171.5,1244.35,168.24,1230.02,183.85,1223.41,171.5" style="stroke:#000000;stroke-width:1.0;"/><!--MD5=[e733af142c20af3a619af63092805ecb]
reverse link TEntity to TExpression--><path codeLine="72" d="M1280.25,189.89 C1254.12,255.45 1201.56,370.1 1128,447 C1102.91,473.23 1066.76,493.94 1040.32,506.89 " fill="none" id="TEntity-backto-TExpression" style="stroke:#000000;stroke-width:1.0;stroke-dasharray:7.0,7.0;"/><polygon fill="none" points="1273.73,187.32,1287.5,171.21,1286.78,192.39,1273.73,187.32" style="stroke:#000000;stroke-width:1.0;"/><!--MD5=[eeecf0fe41770a0bf01dfe7beb63b06f]
reverse link TLiteral to TCharacterLiteral--><path codeLine="73" d="M873.27,659.28 C842.04,677.01 804.98,698.05 780.55,711.92 " fill="none" id="TLiteral-backto-TCharacterLiteral" style="stroke:#000000;stroke-width:1.0;stroke-dasharray:7.0,7.0;"/><polygon fill="none" points="869.99,653.09,890.84,649.31,876.9,665.27,869.99,653.09" style="stroke:#000000;stroke-width:1.0;"/><!--MD5=[d2faeef4f309a641166661f99aae66a4]
reverse link Model to FASTModel--><path codeLine="74" d="M1695,65.3 C1695,84.83 1695,107.46 1695,121.99 " fill="none" id="Model-backto-FASTModel" style="stroke:#000000;stroke-width:1.0;"/><polygon fill="none" points="1688,65.16,1695,45.16,1702,65.16,1688,65.16" style="stroke:#000000;stroke-width:1.0;"/><!--MD5=[5f7fb69a1c4dd0b63f2b44c9f60a01c8]
reverse link TExpression to TArgument--><path codeLine="75" d="M1029.36,555.3 C1042.81,573.33 1059.11,595.16 1069.75,609.42 " fill="none" id="TExpression-backto-TArgument" style="stroke:#000000;stroke-width:1.0;stroke-dasharray:7.0,7.0;"/><polygon fill="none" points="1023.74,559.48,1017.39,539.26,1034.96,551.11,1023.74,559.48" style="stroke:#000000;stroke-width:1.0;"/><!--MD5=[262073a71743c20142a7ae0ce822b72a]
reverse link TLiteral to TNullPointerLiteral--><path codeLine="76" d="M931,672.61 C931,686.71 931,701.25 931,711.75 " fill="none" id="TLiteral-backto-TNullPointerLiteral" style="stroke:#000000;stroke-width:1.0;stroke-dasharray:7.0,7.0;"/><polygon fill="none" points="924,672.12,931,652.12,938,672.12,924,672.12" style="stroke:#000000;stroke-width:1.0;"/><!--MD5=[1e2fdd4eddd60f139868bf69069f589f]
reverse link TExpression to TExpressionStatement--><path codeLine="77" d="M952.1,546.86 C906.97,565.99 843.83,592.77 804.72,609.35 " fill="none" id="TExpression-backto-TExpressionStatement" style="stroke:#000000;stroke-width:1.0;stroke-dasharray:7.0,7.0;"/><polygon fill="none" points="949.37,540.41,970.52,539.05,954.84,553.3,949.37,540.41" style="stroke:#000000;stroke-width:1.0;"/><!--MD5=[51e14fea5358d9aa4bcd4f337e6fe2b4]
reverse link TStatement to TExpressionStatement--><path codeLine="78" d="M1038.56,362.73 C1008.98,375.51 973.84,393.28 946,415 C869.42,474.75 802.49,572.31 778.46,609.48 " fill="none" id="TStatement-backto-TExpressionStatement" style="stroke:#000000;stroke-width:1.0;stroke-dasharray:7.0,7.0;"/><polygon fill="none" points="1035.9,356.25,1057.06,355.06,1041.26,369.18,1035.9,356.25" style="stroke:#000000;stroke-width:1.0;"/><!--MD5=[4d45a12d372ebae6bb6a4e5ebbfc1b3e]
reverse link TExpression to TVariableExpression--><path codeLine="79" d="M932.35,534.63 C800.41,553.69 524.84,593.48 389.07,613.08 " fill="none" id="TExpression-backto-TVariableExpression" style="stroke:#000000;stroke-width:1.0;stroke-dasharray:7.0,7.0;"/><polygon fill="none" points="931.46,527.69,952.25,531.76,933.46,541.55,931.46,527.69" style="stroke:#000000;stroke-width:1.0;"/><!--MD5=[da2de8d39e4ad42326c2f48563085663]
reverse link TNamedEntity to TVariableExpression--><path codeLine="80" d="M121.18,546.73 C167.67,565.87 232.87,592.73 273.22,609.35 " fill="none" id="TNamedEntity-backto-TVariableExpression" style="stroke:#000000;stroke-width:1.0;stroke-dasharray:7.0,7.0;"/><polygon fill="none" points="118.36,553.14,102.53,539.05,123.69,540.19,118.36,553.14" style="stroke:#000000;stroke-width:1.0;"/><!--MD5=[b858f324135136ffa2914f3e1dde7c52]
reverse link TBehaviouralEntity to TStatementBlock--><path codeLine="82" d="M344.77,920.93 C537.69,938.56 998.92,980.7 1173.99,996.69 " fill="none" id="TBehaviouralEntity-backto-TStatementBlock" style="stroke:#000000;stroke-width:1.0;"/><polygon fill="#FFFFFF" points="331.63,919.73,337.2401,924.2607,343.58,920.8248,337.9699,916.2941,331.63,919.73" style="stroke:#000000;stroke-width:1.0;"/><text fill="#000000" font-family="sans-serif" font-size="13" lengthAdjust="spacing" textLength="141" x="339.5121" y="916.8131">fastBehaviouralParent</text><text fill="#000000" font-family="sans-serif" font-size="13" lengthAdjust="spacing" textLength="101" x="1064.9604" y="992.7663">statementBlock</text><!--MD5=[d1881b62c24eb21ca81021830d1d9318]
link TParameter to TWithParameters--><path codeLine="83" d="M286.88,744.27 C289.29,757.02 292.79,775.52 295.7,790.93 " fill="none" id="TParameter-to-TWithParameters" style="stroke:#000000;stroke-width:1.0;"/><polygon fill="#FFFFFF" points="298.16,803.96,300.9773,797.322,295.9334,792.1684,293.1162,798.8064,298.16,803.96" style="stroke:#000000;stroke-width:1.0;"/><text fill="#000000" font-family="sans-serif" font-size="13" lengthAdjust="spacing" textLength="82" x="192.0918" y="763.9347">*parameters</text><text fill="#000000" font-family="sans-serif" font-size="13" lengthAdjust="spacing" textLength="108" x="170.6213" y="792.9578">parameterOwner</text><!--MD5=[1dab147ebe7ca98ff79141f8801baf81]
reverse link TReturnStatement to TExpression--><path codeLine="85" d="M1027.4,459.87 C1022.05,475.41 1015.59,494.15 1011.18,506.96 " fill="none" id="TReturnStatement-backto-TExpression" style="stroke:#000000;stroke-width:1.0;"/><polygon fill="#FFFFFF" points="1031.74,447.27,1026.0051,451.6416,1027.8346,458.6167,1033.5695,454.2452,1031.74,447.27" style="stroke:#000000;stroke-width:1.0;"/><text fill="#000000" font-family="sans-serif" font-size="13" lengthAdjust="spacing" textLength="79" x="938.4728" y="466.9347">returnOwner</text><text fill="#000000" font-family="sans-serif" font-size="13" lengthAdjust="spacing" textLength="69" x="932.1012" y="495.9578">expression</text><!--MD5=[06d1e7a4b8289d6e794f271b8bf15ac9]
link TArgument to TWithArguments--><path codeLine="86" d="M1084.8,641.76 C1088.58,656.98 1094.48,680.69 1099.09,699.24 " fill="none" id="TArgument-to-TWithArguments" style="stroke:#000000;stroke-width:1.0;"/><polygon fill="#FFFFFF" points="1102.25,711.92,1104.688,705.1335,1099.3613,700.2729,1096.9233,707.0593,1102.25,711.92" style="stroke:#000000;stroke-width:1.0;"/><text fill="#000000" font-family="sans-serif" font-size="13" lengthAdjust="spacing" textLength="77" x="996.1019" y="661.4216">*arguments</text><text fill="#000000" font-family="sans-serif" font-size="13" lengthAdjust="spacing" textLength="103" x="980.2578" y="700.9041">argumentOwner</text><!--MD5=[8ba7e5d04326edcd8d16d0dc8931c84c]
@startuml
hide empty members

skinparam class {
  BackgroundColor white
  ArrowColor black
  BorderColor darkGray
  BackgroundColor<<External>> LightYellow
  BorderColor<<External>> LightGray
}

class TEntity << (T,lightGrey) >> {
  Number endPos
  Number startPos
}
class TBehaviouralEntity << (T,lightGrey) >> {
}
class THasImmediateSource << (T,lightGrey) >> {
}
class TParameter << (T,lightGrey) >> {
}
class TStringLiteral << (T,lightGrey) >> {
}
class TWithArguments << (T,lightGrey) >> {
}
class TNamedBehaviouralEntity << (T,lightGrey) >> {
}
class TStatement << (T,lightGrey) >> {
}
class TStatementBlock << (T,lightGrey) >> {
}
class TNamedEntity << (T,lightGrey) >> {
}
class TLiteral << (T,lightGrey) >> {
  String value
}
class TReturnStatement << (T,lightGrey) >> {
}
class TWithParameters << (T,lightGrey) >> {
}
class TBooleanLiteral << (T,lightGrey) >> {
}
class TScopableEntity << (T,lightGrey) >> {
}
class TExpression << (T,lightGrey) >> {
}
class TCharacterLiteral << (T,lightGrey) >> {
}
class FASTModel << (C,white) >> {
}
class TArgument << (T,lightGrey) >> {
}
class TNullPointerLiteral << (T,lightGrey) >> {
}
class TExpressionStatement << (T,lightGrey) >> {
}
class TVariableExpression << (T,lightGrey) >> {
}

TEntityMetaLevelDependency <|.. TEntity
TScopableEntity <|.. TBehaviouralEntity
TWithParameters <|.. TBehaviouralEntity
TVariableExpression <|.. TParameter
TLiteral <|.. TStringLiteral
TBehaviouralEntity <|.. TNamedBehaviouralEntity
TNamedEntity <|.. TNamedBehaviouralEntity
TScopableEntity <|.. TStatement
TStatement <|.. TStatementBlock
TExpression <|.. TLiteral
TStatement <|.. TReturnStatement
TLiteral <|.. TBooleanLiteral
TEntity <|.. TScopableEntity
TEntity <|.. TExpression
TLiteral <|.. TCharacterLiteral
Model <|- - FASTModel
TExpression <|.. TArgument
TLiteral <|.. TNullPointerLiteral
TExpression <|.. TExpressionStatement
TStatement <|.. TExpressionStatement
TExpression <|.. TVariableExpression
TNamedEntity <|.. TVariableExpression

TBehaviouralEntity "fastBehaviouralParent" o- - "statementBlock" TStatementBlock
TParameter " *parameters" - -o "parameterOwner" TWithParameters
TStatement " *statements" - -o "statementContainer" TStatementBlock
TReturnStatement "returnOwner" o- - "expression" TExpression
TArgument " *arguments" - -o "argumentOwner" TWithArguments

class Model <<(T,LightYellow)External>>
class TEntityMetaLevelDependency <<(T,LightYellow)External>>


@enduml

PlantUML version 1.2021.5(Sun Apr 25 13:20:28 CEST 2021)
(GPL source distribution)
Java Runtime: OpenJDK Runtime Environment
JVM: OpenJDK 64-Bit Server VM
Default Encoding: UTF-8
Language: fr
Country: FR
--></g></svg>